PathFileType	4	(X/Y/Z)	/home/nbianco/projects/addbio/data/HamnerRunning2013/Processed/subject17//results/MarkerData/run300.trc
DataRate	CameraRate	NumFrames	NumMarkers	Units	OrigDataRate	OrigDataStartFrame	OrigNumFrames
120.005	120.005	8	41	m	120.005	168	270
Frame#	Time	C7			CLAV			LACR			LASI			LCAL			LFAradius			LFAsuperior			LFAulna			LLEL			LMEL			LMT5			LPSI			LTB1			LTB2			LTB3			LTH1			LTH2			LTH3			LTOE			LUA1			LUA2			LUA3			RACR			RASI			RCAL			RFAradius			RFAsuperior			RFAulna			RLEL			RMEL			RMT5			RPSI			RTB1			RTB2			RTB3			RTH1			RTH3			RTOE			RUA1			RUA2			RUA3		
		X1	Y1	Z1	X2	Y2	Z2	X3	Y3	Z3	X4	Y4	Z4	X5	Y5	Z5	X6	Y6	Z6	X7	Y7	Z7	X8	Y8	Z8	X9	Y9	Z9	X10	Y10	Z10	X11	Y11	Z11	X12	Y12	Z12	X13	Y13	Z13	X14	Y14	Z14	X15	Y15	Z15	X16	Y16	Z16	X17	Y17	Z17	X18	Y18	Z18	X19	Y19	Z19	X20	Y20	Z20	X21	Y21	Z21	X22	Y22	Z22	X23	Y23	Z23	X24	Y24	Z24	X25	Y25	Z25	X26	Y26	Z26	X27	Y27	Z27	X28	Y28	Z28	X29	Y29	Z29	X30	Y30	Z30	X31	Y31	Z31	X32	Y32	Z32	X33	Y33	Z33	X34	Y34	Z34	X35	Y35	Z35	X36	Y36	Z36	X37	Y37	Z37	X38	Y38	Z38	X39	Y39	Z39	X40	Y40	Z40	X41	Y41	Z41

169	1.9	0.826836	1.55789	-0.300574	0.932597	1.49838	-0.230661	0.942689	1.50846	-0.452785	0.922553	1.03718	-0.40415	0.369662	0.272258	-0.326345	1.02086	1.24192	-0.382882	0.986519	1.21055	-0.499971	1.05928	1.19198	-0.412894	0.888375	1.21992	-0.585109	0.818108	1.21063	-0.529342	0.452239	0.0837016	-0.349085	0.768239	1.09146	-0.339649	0.609813	0.458842	-0.325478	0.529026	0.419349	-0.39478	0.513975	0.316517	-0.327741	0.80952	0.860544	-0.458867	0.80381	0.74521	-0.428019	0.682371	0.678861	-0.403313	0.481136	0.107804	-0.267067	0.914355	1.37972	-0.528086	0.851295	1.33496	-0.550685	0.920706	1.29544	-0.547777	0.821937	1.51566	-0.0894805	0.92227	1.04861	-0.17174	0.923928	0.178844	-0.215687	0.673037	1.12541	-0.054723	0.621879	1.23275	-0.0178436	0.614869	1.10452	-0.0219349	0.569098	1.34886	-0.0317829	0.557263	1.33271	-0.112428	1.1146	0.141624	-0.15637	0.757378	1.09308	-0.242787	1.08983	0.452623	-0.223142	1.04584	0.401363	-0.155888	1.05313	0.334934	-0.221645	0.900023	0.899784	-0.109769	1.01996	0.667741	-0.162207	1.13187	0.157831	-0.249929	0.709672	1.43427	-0.0512452	0.657265	1.4549	-0.102722	0.633294	1.38997	-0.0374425
170	1.90833	0.826609	1.5601	-0.30008	0.932498	1.50104	-0.229837	0.94324	1.51223	-0.451558	0.924566	1.04052	-0.40426	0.361708	0.286869	-0.32934	1.01947	1.24661	-0.3813	0.986815	1.21509	-0.4988	1.05815	1.19643	-0.410687	0.890044	1.2245	-0.585841	0.819119	1.21545	-0.530808	0.431829	0.0928241	-0.351843	0.770804	1.09581	-0.339995	0.603797	0.46488	-0.326095	0.523865	0.426847	-0.396035	0.504525	0.324968	-0.329096	0.809038	0.865267	-0.459501	0.802182	0.749664	-0.429658	0.680668	0.684369	-0.403803	0.463142	0.115496	-0.270501	0.916045	1.38433	-0.527677	0.853139	1.33993	-0.551077	0.922648	1.30002	-0.548074	0.821133	1.51833	-0.0897995	0.923921	1.05062	-0.17164	0.948941	0.165402	-0.21692	0.674037	1.12975	-0.0552229	0.621609	1.23678	-0.0186341	0.616014	1.1084	-0.0224492	0.567798	1.35236	-0.0329662	0.55648	1.3358	-0.113573	1.14256	0.142953	-0.159935	0.7594	1.09689	-0.243173	1.09383	0.451521	-0.223761	1.05422	0.397067	-0.15627	1.0659	0.33157	-0.222706	0.90018	0.900456	-0.110553	1.01642	0.666968	-0.161998	1.15745	0.162461	-0.25378	0.708462	1.43768	-0.0518153	0.65666	1.45792	-0.104156	0.631923	1.39377	-0.0382755
171	1.91667	0.826548	1.56158	-0.299604	0.932648	1.50295	-0.229101	0.943712	1.51502	-0.450549	0.926137	1.04334	-0.404052	0.353005	0.301332	-0.331086	1.01791	1.25014	-0.380033	0.986602	1.21846	-0.497888	1.05664	1.19955	-0.408794	0.891037	1.22812	-0.586495	0.819505	1.21934	-0.532034	0.411321	0.103358	-0.355101	0.772828	1.09934	-0.340098	0.599309	0.469164	-0.326726	0.519969	0.433201	-0.397154	0.495269	0.332886	-0.330155	0.808832	0.869545	-0.459753	0.801864	0.753459	-0.431139	0.680829	0.688168	-0.404544	0.444819	0.123711	-0.273991	0.91732	1.38793	-0.5273	0.854435	1.3439	-0.55132	0.924088	1.30377	-0.548812	0.820781	1.52015	-0.0898971	0.925227	1.05144	-0.171639	0.972103	0.153815	-0.218282	0.675578	1.13289	-0.0554849	0.62196	1.23959	-0.0191124	0.617741	1.11109	-0.0226289	0.567123	1.35463	-0.0337511	0.55625	1.33768	-0.114348	1.16738	0.145849	-0.163206	0.761153	1.09955	-0.24316	1.09666	0.45011	-0.224444	1.06115	0.393051	-0.156665	1.07696	0.328658	-0.22373	0.899787	0.89956	-0.111242	1.01277	0.665146	-0.161714	1.17974	0.168253	-0.257255	0.707818	1.44004	-0.0521753	0.65645	1.45986	-0.105171	0.63115	1.39638	-0.0387828
172	1.925	0.826668	1.56239	-0.299064	0.933062	1.50416	-0.228411	0.944106	1.51682	-0.449814	0.927348	1.04562	-0.403639	0.343534	0.315672	-0.331911	1.01624	1.25242	-0.379082	0.985872	1.22057	-0.497208	1.05484	1.20129	-0.40723	0.891295	1.23071	-0.586994	0.819217	1.22227	-0.532897	0.391427	0.115208	-0.358772	0.774247	1.10198	-0.339878	0.59634	0.471763	-0.32774	0.516621	0.438844	-0.39835	0.48634	0.340393	-0.331264	0.809212	0.873133	-0.45966	0.80302	0.756239	-0.432093	0.68281	0.690044	-0.405555	0.426581	0.132755	-0.277501	0.9181	1.39043	-0.526986	0.855104	1.34679	-0.55138	0.924959	1.30655	-0.549826	0.820904	1.52111	-0.0896661	0.926167	1.05129	-0.171637	0.992613	0.144189	-0.219511	0.677654	1.13481	-0.0554988	0.622957	1.24116	-0.0192695	0.620034	1.11255	-0.0225141	0.567119	1.35565	-0.0341148	0.556642	1.33838	-0.114764	1.18849	0.149797	-0.166059	0.762587	1.10094	-0.242732	1.09835	0.448473	-0.225294	1.06662	0.389409	-0.157187	1.08607	0.326189	-0.224785	0.899009	0.89766	-0.111694	1.00871	0.662258	-0.16152	1.19827	0.174533	-0.260094	0.707781	1.44126	-0.0522673	0.656685	1.46075	-0.105683	0.631016	1.39775	-0.0389632
173	1.93333	0.826963	1.56263	-0.298374	0.933735	1.50472	-0.227744	0.944403	1.5177	-0.449367	0.928288	1.04736	-0.403196	0.333788	0.329974	-0.332232	1.01448	1.25334	-0.378433	0.984627	1.2214	-0.496716	1.0528	1.20162	-0.406033	0.890776	1.23227	-0.587304	0.818272	1.22423	-0.533347	0.372854	0.128179	-0.362712	0.775049	1.10364	-0.339337	0.59485	0.472911	-0.329323	0.51354	0.44418	-0.399716	0.478057	0.347646	-0.332578	0.810392	0.875677	-0.459294	0.805692	0.757669	-0.432169	0.686505	0.689866	-0.406846	0.408946	0.142744	-0.280995	0.918311	1.39182	-0.526766	0.855088	1.34854	-0.551247	0.925194	1.30825	-0.550964	0.821485	1.52125	-0.0890668	0.926705	1.05042	-0.1716	1.00971	0.136523	-0.220452	0.68025	1.13549	-0.0552716	0.624615	1.24147	-0.0191043	0.622865	1.11273	-0.0221488	0.567815	1.35542	-0.0340439	0.557697	1.3379	-0.114804	1.20546	0.154074	-0.168466	0.76353	1.10104	-0.242011	1.09902	0.446682	-0.226367	1.07073	0.386204	-0.157911	1.09308	0.324113	-0.225942	0.898162	0.895312	-0.111873	1.00404	0.658421	-0.16136	1.21274	0.180427	-0.262302	0.708347	1.44132	-0.0520373	0.657383	1.46059	-0.10564	0.631548	1.39782	-0.0388158
174	1.94167	0.827415	1.56236	-0.297492	0.934645	1.50462	-0.227099	0.944577	1.51771	-0.44912	0.929011	1.0485	-0.402787	0.324674	0.344357	-0.332372	1.01267	1.25281	-0.378056	0.982883	1.22094	-0.496391	1.05056	1.20054	-0.40525	0.88946	1.23285	-0.587379	0.816719	1.2253	-0.533392	0.356001	0.142027	-0.366823	0.775288	1.1042	-0.338567	0.594777	0.472903	-0.331423	0.510954	0.44944	-0.401206	0.47082	0.354756	-0.33411	0.812471	0.876809	-0.458729	0.809766	0.757595	-0.431216	0.691751	0.687692	-0.408387	0.392373	0.153556	-0.284502	0.917907	1.39212	-0.526631	0.854361	1.3492	-0.550922	0.924729	1.30887	-0.55215	0.82248	1.52063	-0.0881283	0.926828	1.04906	-0.171565	1.02279	0.130607	-0.221181	0.683355	1.13488	-0.0548244	0.626932	1.24048	-0.0186221	0.626214	1.11161	-0.0215612	0.569212	1.35392	-0.0335357	0.559407	1.33623	-0.114414	1.218	0.157837	-0.170502	0.763824	1.09995	-0.241196	1.09879	0.444731	-0.227664	1.07354	0.383373	-0.158853	1.09795	0.322265	-0.227246	0.897443	0.892876	-0.111765	0.998911	0.653898	-0.1611	1.22312	0.185019	-0.264096	0.709477	1.44023	-0.0514468	0.658529	1.4594	-0.105035	0.632746	1.39659	-0.0383366
175	1.95	0.828007	1.56162	-0.296412	0.935742	1.50385	-0.226484	0.94461	1.51694	-0.448921	0.929541	1.04897	-0.402337	0.317141	0.358938	-0.332492	1.01083	1.25083	-0.377896	0.980655	1.21923	-0.496227	1.04815	1.19808	-0.404934	0.887346	1.23251	-0.587145	0.814612	1.22555	-0.533037	0.340929	0.156565	-0.371078	0.775063	1.1036	-0.337709	0.596078	0.471954	-0.333797	0.509388	0.454661	-0.402666	0.464983	0.361755	-0.335803	0.81546	0.876274	-0.458057	0.814992	0.756084	-0.429419	0.698327	0.6838	-0.410058	0.377236	0.164981	-0.288148	0.916874	1.39147	-0.52652	0.852931	1.34887	-0.550393	0.923512	1.30847	-0.553326	0.823841	1.5193	-0.0869151	0.926587	1.04739	-0.171581	1.03151	0.125977	-0.221994	0.68696	1.13295	-0.054189	0.629891	1.23818	-0.0178298	0.630082	1.10921	-0.0207649	0.571292	1.35115	-0.0325903	0.561705	1.33333	-0.113522	1.22605	0.160262	-0.172276	0.763503	1.09777	-0.240454	1.09776	0.442497	-0.229129	1.07502	0.380667	-0.159982	1.10068	0.320332	-0.228697	0.896837	0.890397	-0.111325	0.993796	0.649056	-0.160714	1.22957	0.187586	-0.265704	0.71111	1.43803	-0.050477	0.660074	1.45717	-0.103897	0.634591	1.39406	-0.03751
176	1.95833	0.828722	1.56036	-0.295149	0.936955	1.50237	-0.225899	0.944485	1.51544	-0.448661	0.929894	1.04868	-0.401742	0.311804	0.373789	-0.332625	1.00894	1.24739	-0.377888	0.977947	1.21634	-0.496211	1.04558	1.19433	-0.40514	0.884448	1.23133	-0.586559	0.811995	1.22506	-0.532261	0.327575	0.171718	-0.375483	0.774502	1.10179	-0.336896	0.598752	0.47013	-0.336128	0.50938	0.459728	-0.403903	0.460792	0.368608	-0.33758	0.819307	0.874031	-0.457399	0.821051	0.753357	-0.427262	0.705928	0.678597	-0.411663	0.363875	0.176899	-0.292116	0.915238	1.39	-0.52635	0.850842	1.34771	-0.549636	0.92152	1.30716	-0.554375	0.825533	1.51732	-0.0854913	0.926089	1.04551	-0.171652	1.03587	0.121958	-0.22327	0.691072	1.12964	-0.0533952	0.633463	1.23457	-0.0167327	0.634488	1.10555	-0.0197686	0.574024	1.34713	-0.0312021	0.564488	1.32917	-0.112082	1.22971	0.16073	-0.173843	0.762817	1.09467	-0.239868	1.09601	0.439767	-0.23065	1.07501	0.377695	-0.161256	1.10133	0.317901	-0.230255	0.89618	0.887625	-0.110522	0.989272	0.644276	-0.16037	1.23238	0.187795	-0.267216	0.713191	1.4348	-0.0491322	0.661955	1.45392	-0.102261	0.637054	1.39027	-0.0363026
